<?xml version="1.0" standalone="no"?>
<!DOCTYPE svg PUBLIC "-//W3C//DTD SVG 1.1//EN"
"http://www.w3.org/Graphics/SVG/1.1/DTD/svg11.dtd">

<svg width="187" height="213" view_box="0 0 187 213"
xmlns="http://www.w3.org/2000/svg"
xmlns:link="http://www.w3.org/1999/xlink">\n\n<desc>Généré par Mocodo 2.3.7 le Fri, 16 Jul 2021 00:19:35</desc>

<rect id="frame" x="0" y="0" width="187" height="213" fill="#f7f7f7" stroke="none" stroke-width="0"/>

<!-- Association possède -->
<line x1="146" y1="60" x2="50" y2="60" stroke="#d6604d" stroke-width="2"/>
<text x="88" y="77.0" fill="#2166ac" font-family="Verdana" font-size="12">1,1</text>
<line x1="50" y1="170" x2="50" y2="60" stroke="#d6604d" stroke-width="2"/>
<text x="55.0" y="128" fill="#2166ac" font-family="Verdana" font-size="12">0,N</text>
<g id="association-possède">
	<path d="M 68 35 a 14 14 90 0 1 14 14 V 60 h -64 V 49 a 14 14 90 0 1 14 -14" fill="#f4a582" stroke="#f4a582" stroke-width="0"/>
	<path d="M 82 60.0 v 11 a 14 14 90 0 1 -14 14 H 32 a 14 14 90 0 1 -14 -14 V 60.0 H 64" fill="#fddbc7" stroke="#fddbc7" stroke-width="0"/>
	<rect x="18" y="35" width="64" height="50" fill="none" rx="14" stroke="#d6604d" stroke-width="2"/>
	<line x1="18" y1="60" x2="82" y2="60" stroke="#d6604d" stroke-width="1"/>
	<text x="25" y="52.7" fill="#000000" font-family="Verdana" font-size="12">possède</text>
</g>

<!-- Entity ARTICLE -->
<g id="entity-ARTICLE">
	<g id="frame-ARTICLE">
		<rect x="114" y="9" width="64" height="25" fill="#92c5de" stroke="#92c5de" stroke-width="0"/>
		<rect x="114" y="34.0" width="64" height="77" fill="#d1e5f0" stroke="#d1e5f0" stroke-width="0"/>
		<rect x="114" y="9" width="64" height="102" fill="none" stroke="#4393c3" stroke-width="2"/>
		<line x1="114" y1="34" x2="178" y2="34" stroke="#4393c3" stroke-width="1"/>
	</g>
	<text x="119" y="26.7" fill="#000000" font-family="Verdana" font-size="12">ARTICLE</text>
	<text x="119" y="51.7" fill="#000000" font-family="Verdana" font-size="12">slug</text>
	<line x1="119" y1="54" x2="145" y2="54" stroke="#000000" stroke-width="1"/>
	<text x="119" y="68.8" fill="#000000" font-family="Verdana" font-size="12">titre</text>
	<text x="119" y="85.8" fill="#000000" font-family="Verdana" font-size="12">résumé</text>
	<text x="119" y="102.8" fill="#000000" font-family="Verdana" font-size="12">contenu</text>
</g>

<!-- Entity CATEGORIE -->
<g id="entity-CATEGORIE">
	<g id="frame-CATEGORIE">
		<rect x="9" y="136" width="82" height="25" fill="#92c5de" stroke="#92c5de" stroke-width="0"/>
		<rect x="9" y="161.0" width="82" height="43" fill="#d1e5f0" stroke="#d1e5f0" stroke-width="0"/>
		<rect x="9" y="136" width="82" height="68" fill="none" stroke="#4393c3" stroke-width="2"/>
		<line x1="9" y1="161" x2="91" y2="161" stroke="#4393c3" stroke-width="1"/>
	</g>
	<text x="14" y="153.7" fill="#000000" font-family="Verdana" font-size="12">CATEGORIE</text>
	<text x="14" y="178.8" fill="#000000" font-family="Verdana" font-size="12">route</text>
	<line x1="14" y1="181" x2="47" y2="181" stroke="#000000" stroke-width="1"/>
	<text x="14" y="195.8" fill="#000000" font-family="Verdana" font-size="12">label</text>
</g>
</svg>